<?xml version="1.0" encoding="UTF-8" standalone="no"?>
<!-- Created with Inkscape (http://www.inkscape.org/) -->

<svg
   xmlns:dc="http://purl.org/dc/elements/1.1/"
   xmlns:cc="http://creativecommons.org/ns#"
   xmlns:rdf="http://www.w3.org/1999/02/22-rdf-syntax-ns#"
   xmlns:svg="http://www.w3.org/2000/svg"
   xmlns="http://www.w3.org/2000/svg"
   xmlns:sodipodi="http://sodipodi.sourceforge.net/DTD/sodipodi-0.dtd"
   xmlns:inkscape="http://www.inkscape.org/namespaces/inkscape"
   width="500"
   height="80"
   viewBox="0 0 92.604165 37.041668"
   version="1.1"
   id="svg8"
   sodipodi:docname="water_tracker_image.svg"
   inkscape:version="0.92.3 (2405546, 2018-03-11)">
  <defs
     id="defs2" />
  <sodipodi:namedview
     id="base"
     pagecolor="#ffffff"
     bordercolor="#666666"
     borderopacity="1.0"
     inkscape:pageopacity="0.0"
     inkscape:pageshadow="2"
     inkscape:zoom="3.959798"
     inkscape:cx="121.07916"
     inkscape:cy="32.269887"
     inkscape:document-units="mm"
     inkscape:current-layer="layer1"
     showgrid="false"
     units="px"
     inkscape:pagecheckerboard="true"
     inkscape:window-width="1920"
     inkscape:window-height="1057"
     inkscape:window-x="1912"
     inkscape:window-y="-8"
     inkscape:window-maximized="1" />
  <metadata
     id="metadata5">
    <rdf:RDF>
      <cc:Work
         rdf:about="">
        <dc:format>image/svg+xml</dc:format>
        <dc:type
           rdf:resource="http://purl.org/dc/dcmitype/StillImage" />
        <dc:title></dc:title>
      </cc:Work>
    </rdf:RDF>
  </metadata>
  <g
     inkscape:label="Ebene 1"
     inkscape:groupmode="layer"
     id="layer1"
     transform="translate(0,-259.95832)">
    <path
       style="fill:none;stroke:#000000;stroke-width:0.34491026px;stroke-linecap:butt;stroke-linejoin:miter;stroke-opacity:1"
       d="m 23.47839,284.24629 c 0,0 3.354526,-1.5764 10.554486,-0.0465 0,0 7.93632,1.85465 13.009019,-0.0926"
       id="path821-4"
       inkscape:connector-curvature="0" />
    <path
       style="fill:none;stroke:#000000;stroke-width:0.34491026px;stroke-linecap:butt;stroke-linejoin:miter;stroke-opacity:1"
       d="m 47.041895,284.10719 c 0,0 3.354527,-1.5764 10.554486,-0.0465 0,0 7.93632,1.85465 13.009019,-0.0926"
       id="path821-0"
       inkscape:connector-curvature="0" />
    <path
       style="fill:none;stroke:#000000;stroke-width:0.34491026px;stroke-linecap:butt;stroke-linejoin:miter;stroke-opacity:1"
       d="m 70.6054,283.96809 c 0,0 3.354526,-1.5764 10.554486,-0.0465 0,0 5.981912,1.68761 11.313527,-0.19283 l -0.034,13.1032 -92.26999526,0.0168 0.0112315,-12.42202 c 0,0 3.08876193,-1.61775 10.28872173,-0.0879 0,0 7.936319,1.85465 13.009019,-0.0926"
       id="path821-2"
       inkscape:connector-curvature="0"
       sodipodi:nodetypes="cccccccc" />
    <path
       style="fill:none;stroke:#000000;stroke-width:0.47060016px;stroke-linecap:butt;stroke-linejoin:miter;stroke-opacity:1"
       d="m 14.561675,280.39978 c 0,0 7.332429,-15.8486 -0.07549,-15.23644 -5.9690642,0.50795 0.07549,15.23644 0.07549,15.23644 z"
       id="path871-1-6"
       inkscape:connector-curvature="0"
       sodipodi:nodetypes="ccc" />
    <path
       style="fill:none;stroke:#000000;stroke-width:0.4712581px;stroke-linecap:butt;stroke-linejoin:miter;stroke-opacity:1"
       d="m 10.962139,279.83052 c 0,0 -11.44615966,-9.39739 -5.5075555,-12.37931 4.7935615,-2.38858 5.5075555,12.37931 5.5075555,12.37931 z"
       id="path871-1-3-2"
       inkscape:connector-curvature="0"
       sodipodi:nodetypes="ccc" />
    <path
       style="opacity:1;fill:#3be0ff;fill-opacity:0.49677423;stroke:none;stroke-width:0.15349564;stroke-linecap:round;stroke-linejoin:round;stroke-miterlimit:4;stroke-dasharray:none;stroke-opacity:1;paint-order:markers stroke fill"
       d="m 10.671489,279.14406 c -0.0067,-0.0634 -0.03921,-0.42631 -0.07207,-0.80667 -0.257707,-2.9837 -0.8078089,-5.89878 -1.4598008,-7.73573 -0.4182416,-1.17838 -0.8611547,-1.98733 -1.3787651,-2.51827 -0.4538475,-0.46552 -0.7947329,-0.62854 -1.3115518,-0.62723 -0.2577689,6.7e-4 -0.3472567,0.0144 -0.5385732,0.0817 -0.4926502,0.1737 -0.9017627,0.43412 -1.2573277,0.80046 -0.284606,0.29323 -0.4383325,0.54163 -0.5499235,0.8886 -0.1031752,0.32079 -0.1282376,0.91771 -0.055553,1.32308 0.2363742,1.31831 1.1353574,2.89401 2.7361207,4.79568 0.9982157,1.18587 2.6360997,2.83261 3.8507454,3.87158 0.04457,0.0382 0.04792,0.0315 0.03669,-0.0731 z"
       id="path963-2"
       inkscape:connector-curvature="0" />
    <path
       style="opacity:1;fill:#3be0ff;fill-opacity:0.49677423;stroke:none;stroke-width:0.10838626;stroke-linecap:round;stroke-linejoin:round;stroke-miterlimit:4;stroke-dasharray:none;stroke-opacity:1;paint-order:markers stroke fill"
       d="m 14.534786,279.59817 c -0.01482,-0.0436 -0.105297,-0.29259 -0.20115,-0.5533 -0.914932,-2.4886 -1.649287,-5.16192 -1.974851,-7.18919 -0.142178,-0.88529 -0.168413,-1.15488 -0.202241,-2.07864 -0.03371,-0.92571 -0.02742,-1.15751 0.04744,-1.69108 0.207549,-1.47965 0.816518,-2.34855 1.838614,-2.62345 0.249146,-0.0669 0.654267,-0.10607 0.961691,-0.0926 1.367006,0.0596 2.110317,0.75398 2.417251,2.25802 0.07349,0.36014 0.116583,1.58792 0.07311,2.0832 -0.152287,1.73502 -0.59845,3.65423 -1.418047,6.09985 -0.18865,0.56292 -0.767633,2.12961 -0.989519,2.6776 -0.286619,0.70783 -0.49198,1.1877 -0.508532,1.18829 -0.0093,3.3e-4 -0.02899,-0.0351 -0.04379,-0.0787 z"
       id="path983"
       inkscape:connector-curvature="0" />
    <path
       style="fill:none;stroke:#000000;stroke-width:0.47125813px;stroke-linecap:butt;stroke-linejoin:miter;stroke-opacity:1"
       d="m 18.120258,280.25926 c 0,0 11.44616,-9.39739 5.507556,-12.37931 -4.793562,-2.38858 -5.507556,12.37931 -5.507556,12.37931 z"
       id="path871-1-3-2-8"
       inkscape:connector-curvature="0"
       sodipodi:nodetypes="ccc" />
    <path
       style="opacity:1;fill:#3be0ff;fill-opacity:0.49677423;stroke:none;stroke-width:0.15349564;stroke-linecap:round;stroke-linejoin:round;stroke-miterlimit:4;stroke-dasharray:none;stroke-opacity:1;paint-order:markers stroke fill"
       d="m 18.410908,279.5728 c 0.0067,-0.0634 0.03921,-0.42631 0.07207,-0.80667 0.257707,-2.9837 0.807809,-5.89878 1.459801,-7.73573 0.418242,-1.17838 0.861155,-1.98733 1.378765,-2.51827 0.453848,-0.46552 0.794733,-0.62854 1.311552,-0.62723 0.257769,6.7e-4 0.347257,0.0144 0.538573,0.0817 0.49265,0.1737 0.901763,0.43412 1.257328,0.80046 0.284605,0.29323 0.438332,0.54163 0.549923,0.8886 0.103175,0.32079 0.128238,0.91771 0.05555,1.32308 -0.236374,1.31831 -1.135357,2.89401 -2.736121,4.79568 -0.998215,1.18587 -2.636099,2.83261 -3.850745,3.87158 -0.04457,0.0382 -0.04792,0.0315 -0.03669,-0.0731 z"
       id="path963-2-5"
       inkscape:connector-curvature="0" />
    <text
       xml:space="preserve"
       style="font-style:normal;font-weight:normal;font-size:3.88055563px;line-height:1.25;font-family:sans-serif;letter-spacing:0px;word-spacing:0px;fill:#000000;fill-opacity:1;stroke:none;stroke-width:0.26458332"
       x="25.852764"
       y="279.72751"
       id="text1015"><tspan
         sodipodi:role="line"
         id="tspan1013"
         x="25.852764"
         y="279.72751"
         style="font-size:7.76111126px;stroke-width:0.26458332;-inkscape-font-specification:NSimSun;font-family:NSimSun;font-weight:normal;font-style:normal;font-stretch:normal;font-variant:normal;letter-spacing:1.74889583px">ATER TRACKER</tspan></text>
    <path
       style="opacity:1;fill:#3be0ff;fill-opacity:0.49677423;stroke:none;stroke-width:1.30285823;stroke-linecap:round;stroke-linejoin:round;stroke-miterlimit:4;stroke-dasharray:none;stroke-opacity:1;paint-order:markers stroke fill"
       d="M 1.5276038,115.69576 V 92.85175 L 3.2322363,92.344956 C 7.720789,91.010491 11.588897,90.547707 18.256395,90.54745 c 7.179905,-2.77e-4 11.518014,0.478061 20.773122,2.290528 12.457949,2.439693 20.023509,3.182826 30.028833,2.949608 8.416219,-0.196178 14.072268,-1.117068 19.880686,-3.236878 5.172407,-1.887695 9.927405,-2.58513 17.644434,-2.58798 7.70914,-0.0028 11.77531,0.452946 22.22335,2.4911 11.15974,2.176988 16.94477,2.77631 26.76905,2.773241 10.09945,-0.0032 14.64609,-0.617578 21.46574,-2.900824 4.63487,-1.551773 6.03078,-1.901752 9.48428,-2.377861 8.83891,-1.21856 18.15547,-0.630403 31.39834,1.98219 11.05407,2.180777 16.98663,2.794158 26.92387,2.783716 10.01493,-0.01052 14.7086,-0.67056 21.57789,-3.034351 5.45662,-1.877668 9.1335,-2.527881 15.79775,-2.793635 7.11398,-0.283689 15.86319,0.636121 25.15975,2.645063 9.0029,1.945487 13.76252,2.417343 22.56996,2.237531 7.58486,-0.154852 11.09713,-0.657268 18.24588,-2.609999 l 0.56821,-0.155211 v 14.635372 c 0,8.04945 -0.0752,18.74507 -0.1672,23.76803 l -0.16723,9.13268 H 174.98036 1.5276038 Z"
       id="path1017"
       inkscape:connector-curvature="0"
       transform="matrix(0.26458333,0,0,0.26458333,0,259.95832)" />
  </g>
</svg>
