<?xml version="1.0" encoding="UTF-8" standalone="no"?>
<!-- Created with Inkscape (http://www.inkscape.org/) -->
<svg
    xmlns:dc="http://purl.org/dc/elements/1.1/"
    xmlns:cc="http://creativecommons.org/ns#"
    xmlns:rdf="http://www.w3.org/1999/02/22-rdf-syntax-ns#"
    xmlns:svg="http://www.w3.org/2000/svg"
    xmlns="http://www.w3.org/2000/svg"
    xmlns:sodipodi="http://sodipodi.sourceforge.net/DTD/sodipodi-0.dtd"
    xmlns:inkscape="http://www.inkscape.org/namespaces/inkscape"
    viewBox="0 0 92.604165 37.041668"
    version="1.1"
    id="svg8"
    sodipodi:docname="water_tracker_image1.svg"
    inkscape:version="0.92.3 (2405546, 2018-03-11)">
   <defs
      id="defs2" />
   <g
      inkscape:label="Ebene 1"
      inkscape:groupmode="layer"
      id="layer1"
      transform="translate(0,-259.95832)">
     <path
        style="fill:none;stroke:#000000;stroke-width:0.47060016px;stroke-linecap:butt;stroke-linejoin:miter;stroke-opacity:1"
        d="m 14.561675,280.39978 c 0,0 7.332429,-15.8486 -0.07549,-15.23644 -5.9690642,0.50795 0.07549,15.23644 0.07549,15.23644 z"
        id="path871-1-6"
        inkscape:connector-curvature="0"
        sodipodi:nodetypes="ccc" />
     <path
        style="fill:none;stroke:#000000;stroke-width:0.4712581px;stroke-linecap:butt;stroke-linejoin:miter;stroke-opacity:1"
        d="m 10.962139,279.83052 c 0,0 -11.44615966,-9.39739 -5.5075555,-12.37931 4.7935615,-2.38858 5.5075555,12.37931 5.5075555,12.37931 z"
        id="path871-1-3-2"
        inkscape:connector-curvature="0"
        sodipodi:nodetypes="ccc" />
     <path
        style="opacity:1;fill:#3be0ff;fill-opacity:0.49677423;stroke:none;stroke-width:0.15349564;stroke-linecap:round;stroke-linejoin:round;stroke-miterlimit:4;stroke-dasharray:none;stroke-opacity:1;paint-order:markers stroke fill"
        d="m 10.671489,279.14406 c -0.0067,-0.0634 -0.03921,-0.42631 -0.07207,-0.80667 -0.257707,-2.9837 -0.8078089,-5.89878 -1.4598008,-7.73573 -0.4182416,-1.17838 -0.8611547,-1.98733 -1.3787651,-2.51827 -0.4538475,-0.46552 -0.7947329,-0.62854 -1.3115518,-0.62723 -0.2577689,6.7e-4 -0.3472567,0.0144 -0.5385732,0.0817 -0.4926502,0.1737 -0.9017627,0.43412 -1.2573277,0.80046 -0.284606,0.29323 -0.4383325,0.54163 -0.5499235,0.8886 -0.1031752,0.32079 -0.1282376,0.91771 -0.055553,1.32308 0.2363742,1.31831 1.1353574,2.89401 2.7361207,4.79568 0.9982157,1.18587 2.6360997,2.83261 3.8507454,3.87158 0.04457,0.0382 0.04792,0.0315 0.03669,-0.0731 z"
        id="path963-2"
        inkscape:connector-curvature="0" />
     <path
        style="opacity:1;fill:#3be0ff;fill-opacity:0.49677423;stroke:none;stroke-width:0.10838626;stroke-linecap:round;stroke-linejoin:round;stroke-miterlimit:4;stroke-dasharray:none;stroke-opacity:1;paint-order:markers stroke fill"
        d="m 14.534786,279.59817 c -0.01482,-0.0436 -0.105297,-0.29259 -0.20115,-0.5533 -0.914932,-2.4886 -1.649287,-5.16192 -1.974851,-7.18919 -0.142178,-0.88529 -0.168413,-1.15488 -0.202241,-2.07864 -0.03371,-0.92571 -0.02742,-1.15751 0.04744,-1.69108 0.207549,-1.47965 0.816518,-2.34855 1.838614,-2.62345 0.249146,-0.0669 0.654267,-0.10607 0.961691,-0.0926 1.367006,0.0596 2.110317,0.75398 2.417251,2.25802 0.07349,0.36014 0.116583,1.58792 0.07311,2.0832 -0.152287,1.73502 -0.59845,3.65423 -1.418047,6.09985 -0.18865,0.56292 -0.767633,2.12961 -0.989519,2.6776 -0.286619,0.70783 -0.49198,1.1877 -0.508532,1.18829 -0.0093,3.3e-4 -0.02899,-0.0351 -0.04379,-0.0787 z"
        id="path983"
        inkscape:connector-curvature="0" />
     <path
        style="fill:none;stroke:#000000;stroke-width:0.47125813px;stroke-linecap:butt;stroke-linejoin:miter;stroke-opacity:1"
        d="m 18.120258,280.25926 c 0,0 11.44616,-9.39739 5.507556,-12.37931 -4.793562,-2.38858 -5.507556,12.37931 -5.507556,12.37931 z"
        id="path871-1-3-2-8"
        inkscape:connector-curvature="0"
        sodipodi:nodetypes="ccc" />
     <path
        style="opacity:1;fill:#3be0ff;fill-opacity:0.49677423;stroke:none;stroke-width:0.15349564;stroke-linecap:round;stroke-linejoin:round;stroke-miterlimit:4;stroke-dasharray:none;stroke-opacity:1;paint-order:markers stroke fill"
        d="m 18.410908,279.5728 c 0.0067,-0.0634 0.03921,-0.42631 0.07207,-0.80667 0.257707,-2.9837 0.807809,-5.89878 1.459801,-7.73573 0.418242,-1.17838 0.861155,-1.98733 1.378765,-2.51827 0.453848,-0.46552 0.794733,-0.62854 1.311552,-0.62723 0.257769,6.7e-4 0.347257,0.0144 0.538573,0.0817 0.49265,0.1737 0.901763,0.43412 1.257328,0.80046 0.284605,0.29323 0.438332,0.54163 0.549923,0.8886 0.103175,0.32079 0.128238,0.91771 0.05555,1.32308 -0.236374,1.31831 -1.135357,2.89401 -2.736121,4.79568 -0.998215,1.18587 -2.636099,2.83261 -3.850745,3.87158 -0.04457,0.0382 -0.04792,0.0315 -0.03669,-0.0731 z"
        id="path963-2-5"
        inkscape:connector-curvature="0" />
     <text
        xml:space="preserve"
        style="font-style:normal;font-weight:normal;font-size:3.88055563px;line-height:1.25;font-family:sans-serif;letter-spacing:0px;word-spacing:0px;fill:#000000;fill-opacity:1;stroke:none;stroke-width:0.26458332"
        x="25.852764"
        y="279.72751"
        id="text1015"><tspan
          sodipodi:role="line"
          id="tspan1013"
          x="25.852764"
          y="279.72751"
          style="font-size:7.76111126px;stroke-width:0.26458332;-inkscape-font-specification:NSimSun;font-family:NSimSun;font-weight:normal;font-style:normal;font-stretch:normal;font-variant:normal;letter-spacing:1.74889583px">ATER TRACKER</tspan></text>
     <path
        style="opacity:1;fill:#3be0ff;fill-opacity:0.49677423;stroke:none;stroke-width:0.53992254;stroke-linecap:round;stroke-linejoin:round;stroke-miterlimit:4;stroke-dasharray:none;stroke-opacity:1;paint-order:markers stroke fill"
        d="m -3.266231,291.14707 0.027348,-6.56237 0.4249303,-0.14488 c 1.2058131,-0.41114 1.97558247,-0.49445 4.5680016,-0.49445 2.7556859,0 3.3238042,0.0572 6.2677225,0.63215 6.4953066,1.26833 11.1543726,1.24604 14.9439836,-0.0715 3.103933,-1.07915 6.854262,-1.07424 12.00568,0.0156 2.58632,0.54718 4.106602,0.72722 6.642383,0.78668 3.171237,0.0742 4.969731,-0.14842 7.201264,-0.89195 1.89261,-0.63057 3.000632,-0.7777 5.842793,-0.77576 2.777001,0.001 3.862839,0.11362 6.586418,0.67772 3.602679,0.74622 6.958217,1.03787 9.578839,0.83257 1.915343,-0.15003 3.111349,-0.3892 4.677367,-0.93537 1.586246,-0.55322 2.628115,-0.7359 4.602549,-0.80704 2.445915,-0.088 5.021082,0.18793 8.230555,0.88219 1.957921,0.42355 3.644711,0.56082 6.158676,0.50119 1.960142,-0.0464 2.549475,-0.0987 3.630938,-0.32087 0.710046,-0.14597 1.415165,-0.31121 1.566937,-0.36721 l 0.275917,-0.10175 v 6.85369 6.85372 H 48.336245 -3.2935748 Z"
        id="path1574"
        inkscape:connector-curvature="0" >
               <animate
        attributeName="d" 
        values="
        m -3.266231,291.14707 0.027348,-6.56237 0.6587911,2.02668 c 1.2058131,-0.24392 3.5514911,1.1826 6.037984,1.18017 2.9223374,-0.003 5.3201771,-3.4391 6.7955459,-3.28172 7.437423,0.0154 8.04643,2.22557 11.717924,0.76627 3.053804,-1.21377 3.795484,1.38429 8.946902,2.47413 2.58632,0.54718 3.748604,-2.32428 6.473373,-2.73729 4.039863,-0.12625 10.235687,2.99518 12.46722,2.25165 2.176092,-0.34708 4.696369,-0.18485 7.53853,-0.18291 2.777001,10e-4 2.660127,-2.45884 5.417115,-2.4961 4.025603,-0.45206 6.646956,2.18147 9.211343,2.1355 1.915343,-0.15003 3.645888,-1.32463 6.414619,-0.96877 2.532684,0.7493 2.684901,-0.99986 4.635957,-1.14114 2.445915,-0.088 3.484283,1.69134 6.894209,0.64834 1.957921,0.42355 2.007684,-0.40803 4.521649,-0.46766 1.960142,-0.0464 2.549475,-0.0987 3.630938,-0.32087 0.710046,-0.14597 1.415165,-0.31121 1.566937,-0.36721 l 0.275917,-0.10175 v 6.85369 6.85372 H 48.336245 -3.2935748 Z;
        m -3.266231,291.14707 0.027348,-6.56237 0.4249303,-0.14488 c 1.2058131,-0.41114 2.08150866,1.18167 4.5680016,1.91515 2.8029329,0.82682 4.008886,1.38011 6.9291809,1.12824 6.6606712,-1.07039 6.0753172,-1.68328 9.7468112,-3.14256 3.053804,-1.21377 6.334544,1.21725 11.485962,2.30709 2.58632,0.54718 5.051543,-2.39109 7.776312,-2.8041 3.171237,0.0742 9.032975,2.82814 11.264508,2.08461 2.176092,-0.34708 3.994786,0.65036 6.836947,0.6523 2.777001,10e-4 2.726944,-2.82634 5.450523,-2.26224 3.602679,0.74622 6.356861,-0.83302 8.977483,-1.03832 1.915343,-0.15003 2.443175,1.54851 4.410097,2.60595 2.198597,1.28384 4.789649,1.40558 6.740705,1.2643 2.445915,-0.088 3.818369,-1.14841 7.228295,-2.19141 1.957921,0.42355 3.377441,-0.10735 5.891406,-0.16698 1.960142,-0.0464 2.549475,-0.0987 3.630938,-0.32087 0.710046,-0.14597 1.415165,-0.31121 1.566937,-0.36721 l 0.275917,-0.10175 v 6.85369 6.85372 H 48.336245 -3.2935748 Z;
        m -3.266231,291.14707 0.027348,-6.56237 0.4249303,-0.14488 c 1.2058131,-0.41114 3.4178563,-0.55558 5.9043492,0.1779 2.8029329,0.82682 5.4538119,2.37402 6.9291805,2.5314 6.936293,0.24926 7.077578,0.054 10.749072,-1.4053 3.053804,-1.21377 4.530475,-1.72272 9.681893,-0.63288 2.58632,0.54718 6.65516,0.94978 9.379929,0.53677 3.171237,0.0742 7.295723,-0.57955 9.527256,-1.32308 2.176092,-0.34708 4.66296,0.85081 7.505121,0.85275 2.777001,10e-4 3.328301,0.18045 6.05188,0.74455 3.602679,0.74622 6.290043,0.10242 8.910665,-0.10288 1.915343,-0.15003 1.841819,-2.26008 3.808741,-1.20264 2.198597,1.28384 4.188292,1.27194 6.139348,1.13066 2.445915,-0.088 4.419726,1.79156 7.829652,0.74856 1.957921,0.42355 2.37518,-1.64415 4.889145,-1.70378 1.960142,-0.0464 2.549475,-0.0987 3.630938,-0.32087 0.710046,-0.14597 1.415165,-0.31121 1.566937,-0.36721 l 0.275917,-0.10175 v 6.85369 6.85372 H 48.336245 -3.2935748 Z;
        m -3.266231,291.14707 0.027348,-6.56237 0.6587911,2.02668 c 1.2058131,-0.24392 3.5514911,1.1826 6.037984,1.18017 2.9223374,-0.003 5.3201771,-3.4391 6.7955459,-3.28172 7.437423,0.0154 8.04643,2.22557 11.717924,0.76627 3.053804,-1.21377 3.795484,1.38429 8.946902,2.47413 2.58632,0.54718 3.748604,-2.32428 6.473373,-2.73729 4.039863,-0.12625 10.235687,2.99518 12.46722,2.25165 2.176092,-0.34708 4.696369,-0.18485 7.53853,-0.18291 2.777001,10e-4 2.660127,-2.45884 5.417115,-2.4961 4.025603,-0.45206 6.646956,2.18147 9.211343,2.1355 1.915343,-0.15003 3.645888,-1.32463 6.414619,-0.96877 2.532684,0.7493 2.684901,-0.99986 4.635957,-1.14114 2.445915,-0.088 3.484283,1.69134 6.894209,0.64834 1.957921,0.42355 2.007684,-0.40803 4.521649,-0.46766 1.960142,-0.0464 2.549475,-0.0987 3.630938,-0.32087 0.710046,-0.14597 1.415165,-0.31121 1.566937,-0.36721 l 0.275917,-0.10175 v 6.85369 6.85372 H 48.336245 -3.2935748 Z"
        repeatCount="indefinite" dur="3s"/>
        </path>
   </g>
 </svg>